<?xml version="1.0" encoding="UTF-8"?>
<svg id="_Слой_2" data-name="Слой 2" xmlns="http://www.w3.org/2000/svg" viewBox="0 0 352.64 130.93">
  <defs>
    <style>
      .cls-1 {
        fill: #f90315;
      }
    </style>
  </defs>
  <g id="_Слой_1-2" data-name="Слой 1">
    <g id="_105553462540480" data-name=" 105553462540480">
      <path class="cls-1" d="M260.12,117.91c.2,0,.4,.1,.5,.4s.1,.7,.1,1.1-.1,.7-.2,.8c-.2,.1-.3,.3-.5,.5-.6,.3-1.9,1-4.1,2.1-2.2,1.1-4.6,2.2-7.3,3.3-2.7,1.1-5.3,2.1-7.9,3s-4.6,1.3-5.8,1.3-2.3-.2-3.3-.7-1.5-1.3-1.3-2.3c.2-.7,.4-1.7,.6-3s.4-2.9,.6-4.8c.2-2.4,.4-5.1,.6-8.3,.2-3.1,.3-6.6,.3-10.4,0-4.4-.3-8.2-.9-11.1s-1.4-5.3-2.5-7-2.4-2.9-4-3.6-3.4-1.1-5.4-1.1-3.5,.3-4.8,.9-2.5,1.3-3.5,2c-1.8,1.4-3.3,3.2-4.3,5.4-1,2.2-1.7,5.1-1.9,8.6-.1,.9-.1,1.8-.2,2.7,0,.9-.1,1.9-.1,3s-.1,2.3-.1,3.6-.1,2.9-.1,4.7c0,4.9,.4,8.2,1.2,10.1,.8,1.9,2.1,2.8,4,2.8,.7,0,1.1,0,1.2-.1,.2,0,.5-.1,1-.2,.2,.2,.3,.4,.5,.6,.2,.4,.2,.8-.1,1.3-.4,.5-1.4,1.2-3,1.9-1.6,.8-3.3,1.5-5.2,2.2-1.9,.7-3.7,1.2-5.6,1.7-1.8,.5-3.2,.7-4.1,.7-1.2,0-2.2-.1-3.2-.4-.9-.3-1.4-.6-1.4-1.1s.2-1.1,.5-1.7c.2-.4,.5-1.4,.8-3,.2-1.6,.5-3.6,.7-6.1s.4-5.3,.6-8.6c.2-3.3,.2-6.8,.2-10.6,0-2-.1-4.1-.3-6.5-.2-2.4-.7-4.6-1.5-6.7s-2.1-3.9-3.6-5.3c-1.6-1.4-3.8-2.1-6.6-2.1-1.6,0-3.2,.2-4.4,.7-1.3,.5-2.4,1-3.3,1.7-1.8,1.4-3.4,3.1-4.6,5.2-1.3,2.1-2.1,5-2.6,8.8-.2,1.7-.3,3.5-.5,5.4s-.2,4-.2,6.4c0,3.1,.1,5.7,.2,7.8,.2,2.1,.5,3.7,.9,4.9,.4,1.2,.9,2,1.5,2.5s1.3,.7,2.2,.7,1.5-.1,1.8-.2c.4-.2,.7,.1,.9,.7,.2,.7,.1,1.1-.1,1.2-.3,.3-1.2,.8-2.6,1.5s-3,1.4-4.8,2.2c-1.8,.7-3.7,1.4-5.6,2s-3.5,.8-4.8,.8c-1.4,0-2.5-.2-3.3-.5s-1.2-.7-1.2-1.1c0-.1,.1-.3,.2-.8,.2-.5,.3-.8,.3-1.2,.3-2.6,.6-4.9,.9-7.1s.5-4.6,.6-7.1c.1-2.6,.2-5.5,.3-8.8,.1-3.3,.1-7.3,.1-12s-.7-7.9-2.2-10c-1.4-2.1-2.9-3.2-4.5-3.2-.7,0-1.2,.1-1.6,.2-.5,.1-.9,.2-1.3,.3-.5,.1-.8-.1-.8-.7v-.9c.1-.1,.9-.6,2.5-1.7s3.4-2.2,5.6-3.5c2.1-1.2,4.3-2.4,6.7-3.4,2.3-1,4.2-1.5,5.7-1.5,1,0,1.9,.3,2.6,.9s1.1,1.6,1.1,3.2c0,.7,0,1.5-.1,2.5,0,.9-.1,1.9-.1,2.8,0,1-.1,2-.2,2.9s-.1,1.8-.1,2.4c1.2-1.1,2.6-2.5,4.4-4.2s3.8-3.4,6-4.9c2.2-1.6,4.6-2.9,7.2-4.1s5.3-1.7,8.2-1.7c3.8,0,6.9,1.1,9.3,3.3,2.4,2.2,3.6,6.1,3.8,11.6,1.3-1.2,2.9-2.7,4.8-4.4,1.9-1.7,4-3.4,6.4-4.9,2.3-1.6,4.8-2.9,7.5-4,2.6-1.1,5.3-1.6,8-1.6,9.6,0,14.3,5.1,14.3,15.2,0,1.6-.1,3.5-.2,5.7-.2,2.1-.4,4.4-.6,6.7-.2,2.3-.5,4.7-.6,7-.2,2.3-.2,4.4-.2,6.3,0,8.6,2.3,12.9,6.8,12.9,.7,0,1.5-.1,2.5-.3,.9-.2,1.8-.5,2.7-.8,.9-.3,1.8-.6,2.5-.8,.7-.3,1.3-.6,1.6-.8l-.2-.2h0Z"/>
      <path class="cls-1" d="M118.42,43.41c.4,.1,1.1,.5,2,1.3s1.9,1.8,2.9,2.9,1.9,2.1,2.6,3.1c.7,1,1.1,1.6,1.1,2s-.5,1.1-1.5,1.9-2.1,1.6-3.4,2.5c-1.3,.9-2.5,1.6-3.7,2.3-1.2,.7-2.1,1-2.6,1-.2,0-.8-.4-1.8-1.2-.9-.8-1.9-1.6-2.9-2.7-1-1-1.9-2-2.6-2.9-.8-.9-1.2-1.6-1.2-1.9,0-.4,.5-1.1,1.6-1.9,1-.9,2.2-1.8,3.5-2.7,1.3-.9,2.5-1.8,3.7-2.5,1.3-.7,2-1.1,2.3-1.2h0Z"/>
      <path class="cls-1" d="M123.32,107.61c0,1.7,0,3.4,.1,5s.4,3,.8,4.1c.5,1.2,1.2,2.1,2.2,2.8,1,.7,2.4,1.1,4.2,1.1,.9,0,2-.1,3.1-.3,1.2-.2,2.2-.5,3.3-.8,1-.3,1.9-.7,2.7-1s1.2-.6,1.4-.7c.2-.2,.4-.2,.5,0s.1,.6,0,.9c0,.4-.1,.7-.3,1.1s-.3,.6-.6,.8c-.8,.4-2.3,1.1-4.3,2.2-2.1,1.1-4.5,2.2-7.3,3.3-2.6,1.2-5.2,2.1-7.7,2.9-2.5,.8-4.6,1.2-6.3,1.2-1.9,0-3.4-.6-4.4-1.8-1.1-1.2-1.6-2.6-1.6-4.3,0-.6,0-1.1,.1-1.5,0-.4,.1-.9,.2-1.6,.1-.8,.2-2.3,.4-4.6,.2-2.2,.4-4.6,.6-7.3,.2-2.7,.4-5.5,.6-8.2s.2-5.1,.2-7.1v-4.3c0-2.1-.1-4.1-.4-5.7-.2-1.6-.7-2.9-1.2-3.8-.4-.6-.9-1-1.5-1.4s-1.4-.6-2.3-.6c-.5,0-1,.1-1.5,.3-.5,.2-.9,.3-1.1,.3s-.4-.2-.8-.8c-.4-.5-.4-.8,.1-1.1,.6-.4,1.8-1.1,3.6-2s3.8-1.9,5.9-2.9c2.3-1.2,4.5-2.2,6.7-3,2.1-.9,3.7-1.3,4.6-1.3s1.5,.3,1.9,.8c.3,.5,.5,1.1,.5,1.8v.5c0,.8-.1,2.2-.3,4s-.5,4.1-.8,6.7-.6,5.7-.8,9.1c-.2,3.5-.4,7.2-.4,11.2l-.1,6h0Z"/>
      <path class="cls-1" d="M78.42,72.41c2.6-8.6,2.7-23.7-15.7-30.6,0,0,18.2-19.8,2.8-24.2,0,0-12-2.7-14.7,11.2,0,0-1.2-16.4-16.2-25C25.92-1.19,13.52-1.19,14.82,10.01c.8,6.5,7.7,8.8,11.1,6.9,4.5-2.5,2.6-8.7-.8-9.2-.8-.1-1.9-.6-2.3,.9-.2,.9,3.2,2.4-.1,3.2-3.3,.8-6.5-3.6-3.3-6.5,1.4-1.3,3.9-1.9,5.8-1.5,9.3,1.7,11.1,8.5,10.4,13.9-2.7,19-51,55.1-29,91,7.1,11.5,17.8,19.5,31.5,21,17.5,2,35.6-3.3,46.2-20.2,15.9-25.5,1.9-46.9,1.9-46.9,.1,1.4,.1,2.9,.1,4.3,.1,22.6-9.6,49.2-33.5,52.3-17.5,2.3-35.6-7.7-39-27-3.4-19.4,9.1-35.5,26.7-38.6,17.6-2.9,30.9,5.4,37.9,18.8h0Z"/>
      <path class="cls-1" d="M78.12,70.61c1.1-4.8,1.4-11-1.6-16.6-2.3-4.5-6.7-8.7-14.2-11.5l-.9-.3,.7-.7c0-.1,17.4-19,3.2-23.1-.7-.1-11.3-2.1-13.8,10.7l-.9,4.7-.4-4.8s-1.2-16-15.8-24.4c-3.9-2.3-8.6-3.5-12.4-3-1.2,.1-2.4,.5-3.3,1s-1.7,1.2-2.2,2.2c-.8,1.3-1.1,3.1-.8,5.4,.1,1.1,.5,2.1,.9,2.9,.8,1.5,2.1,2.5,3.4,3.2,1.4,.7,2.8,.9,4.1,.8,.6-.1,1.2-.2,1.7-.5,1-.6,1.7-1.4,2-2.2,.3-.8,.4-1.7,.2-2.5s-.5-1.6-1-2.2c-.5-.5-1-.9-1.7-1-.1,0-.2,0-.4-.1-.5-.1-1-.2-1.1,.4,0,0,.2,.2,.5,.5,.3,.4,.7,.8,.8,1.3,.2,.8-.2,1.5-1.9,2-1.2,.3-2.3,0-3.3-.6-.7-.4-1.2-1-1.6-1.7s-.6-1.5-.6-2.3c0-1.1,.5-2.1,1.5-3.1,.8-.7,1.8-1.2,2.9-1.5,1.2-.3,2.4-.4,3.5-.2,4.3,.8,7.1,2.6,8.8,4.9,2.2,2.9,2.6,6.6,2.1,9.7-.9,6.3-6.6,14.3-13.1,23.4C9.92,60.41-7.28,84.61,7.42,108.61c3.6,5.8,8.1,10.8,13.5,14.3,5.1,3.4,10.9,5.6,17.5,6.4,9.2,1,18.5,.1,26.8-3.6,7.3-3.2,13.8-8.5,18.7-16.3,12.5-20.1,6.3-37.5,3.3-43.7v1.5c0,12.5-2.9,26.3-9.5,36.6-5.5,8.6-13.5,14.9-24.5,16.3-9.3,1.2-18.7-1-26.1-6.1-6.8-4.7-11.9-12-13.6-21.5-1.7-9.7,.5-18.5,5.3-25.5,5-7.2,12.8-12.3,21.9-13.9,8.6-1.5,16.1-.3,22.5,2.8,6.1,3.2,11.3,8.3,14.9,14.7h0Zm-.3-17.2c3.4,6.7,2.8,14.1,1.2,19.2l-.5,1.6-.8-1.5c-3.6-6.9-8.8-12.4-15.4-15.6-6.1-3-13.4-4.1-21.7-2.7-8.8,1.5-16.3,6.4-21.1,13.3-4.6,6.6-6.7,15.2-5.1,24.5,1.6,9.1,6.5,16.1,13,20.6,7.1,5,16.2,7,25.2,5.9,10.5-1.4,18.2-7.4,23.5-15.7,6.5-10.1,9.4-23.6,9.3-35.9v-2.2c0-.7-.1-1.4-.1-2.1l-.2-2.6,1.4,2.2c0,.1,14.2,21.7-1.9,47.6-5,8.1-11.8,13.5-19.3,16.8-8.5,3.7-18.1,4.7-27.5,3.7-6.8-.8-12.8-3.1-18.1-6.6-5.5-3.7-10.2-8.8-13.9-14.8-15.1-24.7,2.4-49.3,16.1-68.6,6.4-9,12-16.9,12.8-22.8,.4-2.9,.1-6.2-1.9-8.7-1.5-2-4-3.7-7.9-4.4-.9-.2-1.9-.1-2.9,.2-.9,.2-1.8,.7-2.4,1.2-.7,.7-1,1.4-1.1,2.1,0,.6,.1,1.1,.4,1.6s.7,.9,1.2,1.2c.7,.4,1.4,.6,2.2,.4,.8-.2,1-.3,1-.3,0-.2-.3-.4-.5-.7h0c-.5-.5-.9-1-.8-1.7,.4-1.9,1.6-1.6,2.7-1.5h0c.1,0,.2,0,.3,.1,1,.1,1.9,.6,2.5,1.4,.7,.8,1.1,1.7,1.3,2.8,.2,1.1,.1,2.2-.3,3.3-.4,1.1-1.3,2.2-2.6,2.9-.6,.4-1.4,.6-2.2,.7-1.5,.2-3.3-.1-4.9-.9s-3-2-4-3.8c-.6-1-.9-2.1-1.1-3.4-.3-2.6,.1-4.6,1-6.2,.7-1.2,1.6-2.1,2.8-2.7,1.1-.6,2.4-1,3.8-1.2,4-.5,9.1,.8,13.2,3.2,11.2,6.4,14.8,17.1,16,22.4,3.9-11.1,14.6-8.7,14.7-8.7h0c14.6,4.2,1.3,20.9-1.9,24.6,7.8,2.9,12.1,7.2,14.5,11.8h0Z"/>
      <path class="cls-1" d="M274.72,72.41c-2.6-8.6-2.7-23.7,15.7-30.6,0,0-18.2-19.8-2.8-24.2,0,0,12-2.7,14.7,11.2,0,0,1.2-16.4,16.2-25,8.7-5,21.1-5,19.8,6.2-.8,6.5-7.7,8.8-11.1,6.9-4.5-2.5-2.6-8.7,.8-9.2,.8-.1,1.9-.6,2.3,.9,.2,.9-3.2,2.4,.1,3.2,3.3,.8,6.5-3.6,3.3-6.5-1.4-1.3-3.9-1.9-5.8-1.5-9.3,1.7-11.1,8.5-10.4,13.9,2.7,19,51,55.1,29,91-7.1,11.5-17.8,19.5-31.5,21-17.5,2-35.6-3.3-46.2-20.2-15.9-25.5-1.9-46.9-1.9-46.9-.1,1.4-.1,2.9-.1,4.3-.1,22.6,9.6,49.2,33.5,52.3,17.5,2.3,35.6-7.7,39-27,3.4-19.4-9.1-35.5-26.7-38.6-17.6-2.9-30.9,5.4-37.9,18.8h0Z"/>
      <path class="cls-1" d="M274.12,72.61c-1.6-5.2-2.2-12.5,1.2-19.2,2.4-4.6,6.7-8.9,14-11.8-3.2-3.7-16.5-20.4-1.9-24.6h0s10.8-2.4,14.7,8.7c1.2-5.3,4.8-15.9,16-22.4,4.2-2.4,9.2-3.7,13.2-3.2,1.4,.2,2.7,.6,3.8,1.2,1.1,.6,2.1,1.5,2.8,2.7,.9,1.6,1.3,3.6,1,6.2-.2,1.3-.5,2.4-1.1,3.4-1,1.7-2.4,3-4,3.8s-3.3,1.1-4.9,.9c-.8-.1-1.5-.3-2.2-.7-1.3-.7-2.2-1.8-2.6-2.9s-.5-2.2-.3-3.3c.2-1.1,.7-2.1,1.3-2.8,.7-.8,1.5-1.3,2.5-1.4,.1,0,.2,0,.3-.1h0c1-.2,2.2-.4,2.7,1.5,.2,.7-.3,1.2-.8,1.7h0c-.2,.3-.5,.5-.5,.7,0,.1,.2,.2,1,.3,.8,.2,1.6,0,2.2-.4,.5-.3,.9-.7,1.2-1.2,.3-.5,.4-1.1,.4-1.6,0-.7-.4-1.5-1.1-2.1-.6-.6-1.5-1-2.4-1.2-1-.3-2-.3-2.9-.2-3.9,.7-6.4,2.3-7.9,4.4-1.9,2.6-2.3,5.9-1.9,8.7,.9,6,6.4,13.8,12.8,22.8,13.7,19.3,31.2,43.9,16.1,68.6-3.7,6-8.3,11.1-13.9,14.8-5.3,3.5-11.3,5.8-18.1,6.6-9.4,1.1-19,.1-27.5-3.7-7.6-3.3-14.3-8.8-19.3-16.8-16.1-25.9-2-47.6-1.9-47.6l1.4-2.2-.2,2.6c0,.7-.1,1.4-.1,2.1v2.2c0,12.3,2.8,25.8,9.3,35.9,5.3,8.3,13,14.3,23.5,15.7,8.9,1.2,18-.9,25.2-5.9,6.5-4.5,11.4-11.5,13-20.6,1.6-9.3-.5-17.8-5.1-24.5-4.8-6.9-12.3-11.8-21.1-13.3-8.3-1.5-15.6-.3-21.7,2.7-6.6,3.3-11.8,8.8-15.4,15.6l-.8,1.5v-1.6h0Zm2.4-18.6c-2.9,5.7-2.7,11.9-1.6,16.6,3.7-6.4,8.8-11.6,15.2-14.7,6.4-3.1,13.9-4.3,22.5-2.8,9.1,1.6,16.9,6.7,21.9,13.9,4.8,6.9,7,15.8,5.3,25.5-1.7,9.5-6.8,16.7-13.6,21.5-7.4,5.1-16.8,7.3-26.1,6.1-11-1.4-19-7.7-24.5-16.3-6.6-10.4-9.6-24.1-9.5-36.6v-1.5c-3,6.3-9.2,23.7,3.3,43.7,4.9,7.8,11.4,13.1,18.7,16.3,8.3,3.6,17.6,4.6,26.8,3.6,6.5-.7,12.4-3,17.5-6.4,5.4-3.6,9.9-8.5,13.5-14.3,14.7-24-2.5-48.2-16-67.2-6.5-9.2-12.2-17.1-13.1-23.4-.5-3.2-.1-6.8,2.1-9.7,1.7-2.3,4.5-4.1,8.8-4.9,1.1-.2,2.3-.1,3.5,.2,1.1,.3,2.2,.8,2.9,1.5,1,.9,1.5,2,1.5,3.1,0,.8-.2,1.6-.6,2.3-.4,.7-1,1.3-1.6,1.7-.9,.6-2.1,.9-3.3,.6-1.8-.4-2.1-1.2-1.9-2,.1-.5,.5-.9,.8-1.3,.2-.3,.5-.5,.5-.5-.1-.6-.7-.5-1.1-.4-.2,0-.3,.1-.4,.1-.6,.1-1.2,.4-1.7,1s-.9,1.3-1,2.2c-.2,.8-.1,1.7,.2,2.5,.3,.9,1,1.7,2,2.2,.5,.3,1,.4,1.7,.5,1.3,.2,2.8-.1,4.1-.8,1.4-.7,2.6-1.7,3.4-3.2,.5-.8,.8-1.8,.9-2.9,.3-2.3-.1-4-.8-5.4-.5-.9-1.3-1.7-2.2-2.2-1-.5-2.1-.9-3.3-1-3.8-.4-8.5,.8-12.4,3-14.6,8.4-15.8,24.4-15.8,24.4l-.4,4.8-.9-4.7c-2.5-12.8-13.1-10.8-13.8-10.7-14.3,4.1,3.1,23,3.2,23.1l.7,.7-.9,.3c-7.8,2.8-12.2,7-14.5,11.5h0Z"/>
    </g>
  </g>
</svg>